<svg version="1.1" x="0px" y="0px" width="460" height="301" xmlns="http://www.w3.org/2000/svg" xmlns:xlink="http://www.w3.org/1999/xlink" xmlns:a="http://ns.adobe.com/AdobeSVGViewerExtensions/3.0/" xml:space="preserve"><g transform="translate(136.34764766693 19.99999367573) scale(2.1870038522239 2.1870038522239) rotate(0 43.558498382569 43.558498382569)"><path d="M43.559,0L0,43.558l43.559,43.559l43.558-43.559L43.559,0z M43.559,3.535l14.948,14.948L44.809,32.183v-16.7
	L14.711,45.405h20.41l7.188-7.188v13.18L26.842,66.865L3.535,43.558L43.559,3.535z M44.809,52.434l8.223-8.223h13.217L44.809,65.617
	V52.434z M42.309,34.682l-8.223,8.224H20.771l21.537-21.412L42.309,34.682z M28.61,68.633l13.699-13.699l0,16.713l29.981-29.936
	H51.996l-7.188,7.188V35.718l15.466-15.467l23.307,23.307L43.559,83.581L28.61,68.633z" fill="#ffffff"></path></g>
<g transform="translate(19.999991416931 226.13280617573) scale(1.0904011410998 1.0904011410997) rotate(0 5.9665002822875 24.933000564575)"><polygon points="11.933,49.866 0,49.866 0,0 11.933,0 11.933,3 3,3 3,46.866 11.933,46.866 " fill="#ffffff"></polygon></g>
<g transform="translate(439.17908573151 228.20311867573) scale(-1 1) rotate(0 5.9665002822875 24.933000564575)"><polygon points="11.933,49.866 0,49.866 0,0 11.933,0 11.933,3 3,3 3,46.866 11.933,46.866 " fill="#ffffff"></polygon></g>
<g transform="translate(35.999991416931 269.10432720478)  scale(0.756838770137 0.756838770137)"><text dominant-baseline="auto" alignment-baseline="auto" font-family="ADAM.CG PRO" font-size="62px" fill="#ffffff" letter-spacing="0" xml:space="preserve">RETAIL 4 BRANDS</text></g>
</svg>